<svg width="440" height="141" viewBox="0 0 440 141" fill="none" xmlns="http://www.w3.org/2000/svg">
<path d="M107.484 101H95.4844V50.2812H106.781L107.484 61.1094V101ZM101.719 73.9062C101.75 68.9688 102.594 64.6719 104.25 61.0156C105.938 57.3281 108.297 54.4688 111.328 52.4375C114.359 50.375 117.891 49.3438 121.922 49.3438C125.172 49.3438 128 49.9688 130.406 51.2188C132.812 52.4375 134.672 54.4375 135.984 57.2188C137.328 60 138 63.7344 138 68.4219V101H125.953V68.3281C125.953 66.0156 125.625 64.1875 124.969 62.8438C124.312 61.5 123.328 60.5469 122.016 59.9844C120.734 59.4219 119.156 59.1406 117.281 59.1406C115.375 59.1406 113.688 59.5156 112.219 60.2656C110.781 61.0156 109.547 62.0625 108.516 63.4062C107.516 64.75 106.75 66.3125 106.219 68.0938C105.719 69.875 105.469 71.7969 105.469 73.8594L101.719 73.9062ZM174.328 101.938C170.078 101.938 166.578 100.859 163.828 98.7031C161.109 96.5469 158.984 93.5938 157.453 89.8438C155.953 86.0938 154.922 81.8281 154.359 77.0469V74.2812C154.922 69.375 155.953 65.0625 157.453 61.3438C158.984 57.5938 161.109 54.6562 163.828 52.5312C166.547 50.4062 170.016 49.3438 174.234 49.3438C178.609 49.3438 182.266 50.4375 185.203 52.625C188.141 54.8125 190.344 57.8594 191.812 61.7656C193.281 65.6406 194.016 70.0938 194.016 75.125V76.1094C194.016 81.1406 193.281 85.6094 191.812 89.5156C190.344 93.3906 188.141 96.4375 185.203 98.6562C182.266 100.844 178.641 101.938 174.328 101.938ZM149.203 101V29H161.203V89.8438L160.031 101H149.203ZM171.281 92.1406C174.031 92.1406 176.172 91.4375 177.703 90.0312C179.266 88.625 180.375 86.7188 181.031 84.3125C181.688 81.875 182.016 79.1406 182.016 76.1094V75.125C182.016 72.25 181.688 69.5938 181.031 67.1562C180.406 64.7188 179.312 62.7812 177.75 61.3438C176.188 59.875 174 59.1406 171.188 59.1406C169.281 59.1406 167.625 59.4688 166.219 60.125C164.844 60.75 163.688 61.6406 162.75 62.7969C161.812 63.9531 161.078 65.3125 160.547 66.875C160.047 68.4375 159.719 70.125 159.562 71.9375V79.3906C159.812 81.7656 160.359 83.9219 161.203 85.8594C162.078 87.7969 163.328 89.3281 164.953 90.4531C166.609 91.5781 168.719 92.1406 171.281 92.1406ZM201.047 75.1719C201.047 70.2344 201.984 65.8281 203.859 61.9531C205.734 58.0781 208.422 55.0156 211.922 52.7656C215.453 50.4844 219.703 49.3438 224.672 49.3438C229.703 49.3438 234 50.4844 237.562 52.7656C241.125 55.0156 243.828 58.0781 245.672 61.9531C247.547 65.8281 248.484 70.2344 248.484 75.1719V76.1562C248.484 81.0625 247.547 85.4688 245.672 89.375C243.828 93.25 241.125 96.3125 237.562 98.5625C234.031 100.812 229.766 101.938 224.766 101.938C219.766 101.938 215.5 100.812 211.969 98.5625C208.438 96.3125 205.734 93.25 203.859 89.375C201.984 85.4688 201.047 81.0625 201.047 76.1562V75.1719ZM213.047 76.1562C213.047 79.0938 213.453 81.7969 214.266 84.2656C215.078 86.7031 216.344 88.6562 218.062 90.125C219.781 91.5625 222.016 92.2812 224.766 92.2812C227.516 92.2812 229.75 91.5625 231.469 90.125C233.188 88.6562 234.438 86.7031 235.219 84.2656C236.031 81.7969 236.438 79.0938 236.438 76.1562V75.1719C236.438 72.2656 236.031 69.5938 235.219 67.1562C234.438 64.6875 233.172 62.7188 231.422 61.25C229.703 59.75 227.453 59 224.672 59C221.953 59 219.734 59.75 218.016 61.25C216.297 62.7188 215.031 64.6875 214.219 67.1562C213.438 69.5938 213.047 72.2656 213.047 75.1719V76.1562ZM285.891 66.7812C285.891 64.2188 285.188 62.1875 283.781 60.6875C282.406 59.1562 280.281 58.3906 277.406 58.3906C275.688 58.3906 274.188 58.6875 272.906 59.2812C271.656 59.8438 270.688 60.625 270 61.625C269.312 62.625 268.969 63.7812 268.969 65.0938H256.969C256.969 62.3125 257.828 59.7344 259.547 57.3594C261.297 54.9531 263.75 53.0156 266.906 51.5469C270.062 50.0781 273.781 49.3438 278.062 49.3438C281.906 49.3438 285.312 50 288.281 51.3125C291.281 52.5938 293.641 54.5312 295.359 57.125C297.078 59.7188 297.938 62.9688 297.938 66.875V89.0938C297.938 91.5625 298.109 93.7031 298.453 95.5156C298.797 97.2969 299.281 98.8594 299.906 100.203V101H287.672C287.078 99.75 286.625 98.1406 286.312 96.1719C286.031 94.2031 285.891 92.2656 285.891 90.3594V66.7812ZM287.625 77.4219H279.844C275.844 77.4219 272.844 78.1875 270.844 79.7188C268.844 81.2188 267.844 83.2188 267.844 85.7188C267.844 87.6562 268.5 89.2656 269.812 90.5469C271.156 91.8281 273.031 92.4688 275.438 92.4688C277.688 92.4688 279.641 92.0156 281.297 91.1094C282.953 90.2031 284.25 89.1094 285.188 87.8281C286.125 86.5156 286.609 85.2812 286.641 84.125L290.344 89.4688C289.938 90.7188 289.297 92.0625 288.422 93.5C287.547 94.9375 286.391 96.2969 284.953 97.5781C283.547 98.8594 281.859 99.9062 279.891 100.719C277.922 101.531 275.641 101.938 273.047 101.938C269.766 101.938 266.812 101.281 264.188 99.9688C261.594 98.6562 259.547 96.8594 258.047 94.5781C256.578 92.2656 255.844 89.6719 255.844 86.7969C255.844 81.4219 257.844 77.2969 261.844 74.4219C265.875 71.5156 271.625 70.0625 279.094 70.0625H287.625V77.4219ZM321.422 101H309.422V50.2812H320.812L321.422 60.5V101ZM336.656 61.3906C335.938 61.2656 335.156 61.1719 334.312 61.1094C333.5 61.0469 332.703 61.0156 331.922 61.0156C329.391 61.0156 327.281 61.4688 325.594 62.375C323.906 63.25 322.625 64.5312 321.75 66.2188C320.906 67.875 320.406 69.8594 320.25 72.1719L317.578 71.9844C317.578 67.7031 318.141 63.8594 319.266 60.4531C320.391 57.0156 322.062 54.3125 324.281 52.3438C326.531 50.3438 329.328 49.3438 332.672 49.3438C333.328 49.3438 334.062 49.4062 334.875 49.5312C335.688 49.625 336.312 49.7656 336.75 49.9531L336.656 61.3906ZM361.359 101.938C357.266 101.938 353.734 100.828 350.766 98.6094C347.797 96.3594 345.516 93.2969 343.922 89.4219C342.328 85.5469 341.531 81.1406 341.531 76.2031V75.2188C341.531 70.0938 342.328 65.5938 343.922 61.7188C345.516 57.8125 347.797 54.7812 350.766 52.625C353.734 50.4375 357.297 49.3438 361.453 49.3438C365.547 49.3438 368.953 50.4219 371.672 52.5781C374.422 54.7031 376.578 57.6562 378.141 61.4375C379.734 65.1875 380.797 69.5312 381.328 74.4688V77.2344C380.797 81.9844 379.75 86.2188 378.188 89.9375C376.625 93.6562 374.469 96.5938 371.719 98.75C368.969 100.875 365.516 101.938 361.359 101.938ZM364.406 92.0938C366.906 92.0938 368.953 91.5469 370.547 90.4531C372.172 89.3594 373.422 87.875 374.297 86C375.203 84.125 375.812 82 376.125 79.625V72.125C375.938 70.25 375.562 68.5156 375 66.9219C374.469 65.3281 373.734 63.9531 372.797 62.7969C371.891 61.6406 370.75 60.75 369.375 60.125C368 59.4688 366.375 59.1406 364.5 59.1406C361.875 59.1406 359.75 59.8594 358.125 61.2969C356.531 62.7344 355.359 64.6719 354.609 67.1094C353.891 69.5469 353.531 72.25 353.531 75.2188V76.2031C353.531 79.1406 353.891 81.8125 354.609 84.2188C355.328 86.625 356.484 88.5469 358.078 89.9844C359.672 91.3906 361.781 92.0938 364.406 92.0938ZM375.422 101L374.25 90.2656V29H386.297V101H375.422ZM426.141 50.2812H438.938L418.688 108.688C418.219 109.938 417.594 111.297 416.812 112.766C416.062 114.234 415.078 115.625 413.859 116.938C412.672 118.281 411.172 119.375 409.359 120.219C407.547 121.062 405.359 121.484 402.797 121.484C402.109 121.484 401.438 121.438 400.781 121.344C400.156 121.281 399.547 121.188 398.953 121.062C398.359 120.938 397.766 120.797 397.172 120.641V111.406C397.453 111.438 397.812 111.469 398.25 111.5C398.688 111.531 399.047 111.547 399.328 111.547C402.109 111.547 404.188 111.062 405.562 110.094C406.969 109.125 408.062 107.484 408.844 105.172L412.5 95.375L426.141 50.2812ZM417.141 87.5469L419.203 100.578L410.906 102.219L392.625 50.2812H405.562L417.141 87.5469Z" fill="black"/>
<mask id="mask0_89_49" style="mask-type:alpha" maskUnits="userSpaceOnUse" x="0" y="26" width="81" height="81">
<rect y="26" width="81" height="81" fill="#D9D9D9"/>
</mask>
<g mask="url(#mask0_89_49)">
<path d="M46 31C65.33 31 81 46.67 81 66C81 85.33 65.33 101 46 101C34.6502 101 24.564 95.5962 18.1689 87.2227C18.4478 87.0883 18.7254 86.9427 19 86.7842L29.6006 80.6631C33.629 85.1655 39.4831 88 46 88C58.1503 88 68 78.1503 68 66C68 53.8497 58.1503 44 46 44C39.4833 44 33.629 46.8339 29.6006 51.3359L19 45.2158C18.7252 45.0572 18.4479 44.9108 18.1689 44.7764C24.564 36.4032 34.6505 31 46 31Z" fill="#E0132F"/>
<path d="M35 60.3038C39 62.6132 39 68.3868 35 70.6962L14.75 82.3875C10.75 84.6969 5.75 81.8101 5.75 77.1913L5.75 53.8087C5.75 49.1899 10.75 46.3031 14.75 48.6125L35 60.3038Z" fill="#E0132F"/>
</g>
</svg>
