<svg width="81" height="81" viewBox="0 0 81 81" fill="none" xmlns="http://www.w3.org/2000/svg">
<mask id="mask0_89_48" style="mask-type:alpha" maskUnits="userSpaceOnUse" x="0" y="0" width="81" height="81">
<rect width="81" height="81" fill="#D9D9D9"/>
</mask>
<g mask="url(#mask0_89_48)">
<path d="M46 5C65.33 5 81 20.67 81 40C81 59.33 65.33 75 46 75C34.6502 75 24.564 69.5962 18.1689 61.2227C18.4478 61.0883 18.7254 60.9427 19 60.7842L29.6006 54.6631C33.629 59.1655 39.4831 62 46 62C58.1503 62 68 52.1503 68 40C68 27.8497 58.1503 18 46 18C39.4833 18 33.629 20.8339 29.6006 25.3359L19 19.2158C18.7252 19.0572 18.4479 18.9108 18.1689 18.7764C24.564 10.4032 34.6505 5 46 5Z" fill="#E0132F"/>
<path d="M35 34.3038C39 36.6132 39 42.3868 35 44.6962L14.75 56.3875C10.75 58.6969 5.75 55.8101 5.75 51.1913L5.75 27.8087C5.75 23.1899 10.75 20.3031 14.75 22.6125L35 34.3038Z" fill="#E0132F"/>
</g>
</svg>
